<svg xmlns="http://www.w3.org/2000/svg" enable-background="new 0 0 48 48" viewBox="0 0 48 48"><path d="M44,25h-6c-0.27,0-0.52,0.11-0.71,0.29l-2.68,2.68L30.98,9.8C30.89,9.35,30.5,9.02,30.04,9c-0.47-0.02-0.88,0.28-1,0.72
		l-7.2,25.19l-6.91-17.28c-0.15-0.37-0.49-0.61-0.89-0.63c-0.4-0.02-0.76,0.2-0.94,0.55L9.38,25H4c-0.55,0-1,0.45-1,1s0.45,1,1,1h6
		c0.38,0,0.73-0.21,0.89-0.55l3-6.01l7.17,17.93C21.22,38.75,21.59,39,22,39c0.02,0,0.03,0,0.05,0c0.43-0.02,0.79-0.31,0.91-0.72
		l6.87-24.03l3.19,15.96c0.07,0.36,0.34,0.65,0.69,0.76c0.35,0.11,0.74,0.01,1-0.25L38.41,27H44c0.55,0,1-0.45,1-1S44.55,25,44,25z"/></svg>